<svg width="86" height="64" viewBox="0 0 86 64" fill="none" xmlns="http://www.w3.org/2000/svg">
<path d="M15.3984 49.4844V53.9609H2.69531V9.21875H15.3984V13.6719H8.92969V49.4844H15.3984ZM20.6576 44.3516C18.5599 44.3516 16.89 43.8125 15.6478 42.7344C14.4056 41.6445 13.5853 40.0156 13.1869 37.8477L16.474 37.3027C16.6849 38.6621 17.1595 39.7227 17.8978 40.4844C18.6361 41.2461 19.5619 41.627 20.6752 41.627C21.8939 41.627 22.8548 41.2109 23.558 40.3789C24.2611 39.5352 24.6127 38.3047 24.6127 36.6875V21.9746H19.849V19.2324H27.9525V36.6172C27.9525 39.0195 27.3021 40.9121 26.0013 42.2949C24.7005 43.666 22.9193 44.3516 20.6576 44.3516ZM34.4149 33.7168V44H31.0575V19.2324H42.7118C45.5009 19.2324 47.6513 19.8594 49.163 21.1133C50.6864 22.3555 51.4481 24.0898 51.4481 26.3164C51.4481 28.1562 50.9091 29.7031 49.8309 30.957C48.7645 32.2109 47.288 33.002 45.4013 33.3301L52.4325 44H48.5653L42.1317 33.7168H34.4149ZM48.0731 26.3516C48.0731 24.9102 47.5809 23.8145 46.5966 23.0645C45.6239 22.3027 44.2177 21.9219 42.3778 21.9219H34.4149V31.0625H42.5184C44.288 31.0625 45.6532 30.6523 46.6141 29.832C47.5868 29 48.0731 27.8398 48.0731 26.3516ZM63.5883 21.9746V44H60.2484V21.9746H51.7406V19.2324H72.0961V21.9746H63.5883ZM83.7089 9.21875V53.9609H71.0058V49.4844H77.5214V13.6719H71.0058V9.21875H83.7089Z" fill="#F5F5F5"/>
</svg>
