<svg width="40" height="30" viewBox="0 0 40 30" fill="none" xmlns="http://www.w3.org/2000/svg">
<path d="M7.16205 23.1958V25.2942H1.25363V4.32129H7.16205V6.4087H4.15334V23.1958H7.16205ZM9.60818 20.7898C8.63251 20.7898 7.85581 20.5371 7.27805 20.0318C6.70028 19.5209 6.31874 18.7573 6.13344 17.7411L7.66232 17.4856C7.76042 18.1229 7.98116 18.62 8.32456 18.9771C8.66795 19.3341 9.09856 19.5127 9.61637 19.5127C10.1832 19.5127 10.6301 19.3176 10.9572 18.9276C11.2842 18.5321 11.4478 17.9553 11.4478 17.1973V10.3006H9.23209V9.01519H13.0012V17.1643C13.0012 18.2904 12.6987 19.1775 12.0936 19.8257C11.4886 20.4684 10.6601 20.7898 9.60818 20.7898ZM16.0069 15.8048V20.625H14.4453V9.01519H19.866C21.1632 9.01519 22.1634 9.30909 22.8665 9.89686C23.5751 10.4791 23.9293 11.2921 23.9293 12.3358C23.9293 13.1982 23.6787 13.9233 23.1772 14.5111C22.6812 15.0989 21.9944 15.4697 21.1169 15.6235L24.3872 20.625H22.5885L19.5961 15.8048H16.0069ZM22.3596 12.3523C22.3596 11.6767 22.1307 11.163 21.6728 10.8115C21.2204 10.4544 20.5664 10.2759 19.7106 10.2759H16.0069V14.5605H19.776C20.5991 14.5605 21.234 14.3683 21.681 13.9838C22.1334 13.5938 22.3596 13.0499 22.3596 12.3523ZM29.576 10.3006V20.625H28.0225V10.3006H24.0654V9.01519H33.5331V10.3006H29.576ZM38.9344 4.32129V25.2942H33.026V23.1958H36.0565V6.4087H33.026V4.32129H38.9344Z" fill="#00742E"/>
</svg>
